<mxfile host="Electron" agent="Mozilla/5.0 (Windows NT 10.0; Win64; x64) AppleWebKit/537.36 (KHTML, like Gecko) draw.io/24.7.17 Chrome/128.0.6613.36 Electron/32.0.1 Safari/537.36" version="24.7.17">
  <diagram name="Page-1" id="IrEswPjZCWboxLNJNqAE">
    <mxGraphModel dx="2607" dy="1520" grid="1" gridSize="10" guides="1" tooltips="1" connect="1" arrows="1" fold="1" page="1" pageScale="1" pageWidth="827" pageHeight="1169" math="0" shadow="0">
      <root>
        <mxCell id="0" />
        <mxCell id="1" parent="0" />
        <mxCell id="zUubmbhgziFnfHhTZaCc-3" value="" style="rounded=0;whiteSpace=wrap;html=1;" vertex="1" parent="1">
          <mxGeometry x="161.87660668380462" y="367.27272727272725" width="1545.0385604113112" height="340.9090909090908" as="geometry" />
        </mxCell>
        <mxCell id="zUubmbhgziFnfHhTZaCc-30" value="" style="rounded=0;whiteSpace=wrap;html=1;" vertex="1" parent="1">
          <mxGeometry x="1191.9023136246788" y="140" width="1688.0976863753212" height="136.36363636363635" as="geometry" />
        </mxCell>
        <mxCell id="zUubmbhgziFnfHhTZaCc-13" value="" style="group" vertex="1" connectable="0" parent="1">
          <mxGeometry x="591.0539845758354" y="685.4545454545454" width="28.61182519280206" height="90.9090909090909" as="geometry" />
        </mxCell>
        <mxCell id="zUubmbhgziFnfHhTZaCc-10" value="" style="rounded=0;whiteSpace=wrap;html=1;strokeColor=none;" vertex="1" parent="zUubmbhgziFnfHhTZaCc-13">
          <mxGeometry width="28.61182519280206" height="90.9090909090909" as="geometry" />
        </mxCell>
        <mxCell id="zUubmbhgziFnfHhTZaCc-11" value="" style="endArrow=none;html=1;rounded=0;entryX=0.04;entryY=1.001;entryDx=0;entryDy=0;entryPerimeter=0;" edge="1" parent="zUubmbhgziFnfHhTZaCc-13">
          <mxGeometry width="50" height="50" relative="1" as="geometry">
            <mxPoint y="90.9090909090909" as="sourcePoint" />
            <mxPoint y="22.727272727272727" as="targetPoint" />
          </mxGeometry>
        </mxCell>
        <mxCell id="zUubmbhgziFnfHhTZaCc-12" value="" style="endArrow=none;html=1;rounded=0;entryX=0.078;entryY=1.001;entryDx=0;entryDy=0;entryPerimeter=0;" edge="1" parent="zUubmbhgziFnfHhTZaCc-13">
          <mxGeometry width="50" height="50" relative="1" as="geometry">
            <mxPoint x="28.61182519280206" y="90.9090909090909" as="sourcePoint" />
            <mxPoint x="28.61182519280206" y="22.727272727272727" as="targetPoint" />
          </mxGeometry>
        </mxCell>
        <mxCell id="zUubmbhgziFnfHhTZaCc-14" value="" style="group;rotation=-180;" vertex="1" connectable="0" parent="1">
          <mxGeometry x="476.60668380462727" y="299.09090909090907" width="28.61182519280206" height="90.9090909090909" as="geometry" />
        </mxCell>
        <mxCell id="zUubmbhgziFnfHhTZaCc-15" value="" style="rounded=0;whiteSpace=wrap;html=1;strokeColor=none;rotation=-180;" vertex="1" parent="zUubmbhgziFnfHhTZaCc-14">
          <mxGeometry width="28.61182519280206" height="90.9090909090909" as="geometry" />
        </mxCell>
        <mxCell id="zUubmbhgziFnfHhTZaCc-16" value="" style="endArrow=none;html=1;rounded=0;entryX=0.04;entryY=1.001;entryDx=0;entryDy=0;entryPerimeter=0;" edge="1" parent="zUubmbhgziFnfHhTZaCc-14">
          <mxGeometry width="50" height="50" relative="1" as="geometry">
            <mxPoint x="28.61182519280206" as="sourcePoint" />
            <mxPoint x="28.61182519280206" y="68.18181818181817" as="targetPoint" />
          </mxGeometry>
        </mxCell>
        <mxCell id="zUubmbhgziFnfHhTZaCc-17" value="" style="endArrow=none;html=1;rounded=0;entryX=0.078;entryY=1.001;entryDx=0;entryDy=0;entryPerimeter=0;" edge="1" parent="zUubmbhgziFnfHhTZaCc-14">
          <mxGeometry width="50" height="50" relative="1" as="geometry">
            <mxPoint as="sourcePoint" />
            <mxPoint y="68.18181818181817" as="targetPoint" />
          </mxGeometry>
        </mxCell>
        <mxCell id="zUubmbhgziFnfHhTZaCc-18" value="" style="endArrow=none;html=1;rounded=0;" edge="1" parent="1">
          <mxGeometry width="50" height="50" relative="1" as="geometry">
            <mxPoint x="562.4421593830334" y="708.1818181818181" as="sourcePoint" />
            <mxPoint x="562.4421593830334" y="367.27272727272725" as="targetPoint" />
          </mxGeometry>
        </mxCell>
        <mxCell id="zUubmbhgziFnfHhTZaCc-19" value="" style="endArrow=none;html=1;rounded=0;" edge="1" parent="1">
          <mxGeometry width="50" height="50" relative="1" as="geometry">
            <mxPoint x="419.38303341902315" y="708.1818181818181" as="sourcePoint" />
            <mxPoint x="419.38303341902315" y="367.27272727272725" as="targetPoint" />
          </mxGeometry>
        </mxCell>
        <mxCell id="zUubmbhgziFnfHhTZaCc-20" value="" style="group;rotation=0;" vertex="1" connectable="0" parent="1">
          <mxGeometry x="219.10025706940874" y="685.4545454545454" width="28.61182519280206" height="90.9090909090909" as="geometry" />
        </mxCell>
        <mxCell id="zUubmbhgziFnfHhTZaCc-21" value="" style="rounded=0;whiteSpace=wrap;html=1;strokeColor=none;rotation=0;" vertex="1" parent="zUubmbhgziFnfHhTZaCc-20">
          <mxGeometry width="28.61182519280206" height="90.9090909090909" as="geometry" />
        </mxCell>
        <mxCell id="zUubmbhgziFnfHhTZaCc-22" value="" style="endArrow=none;html=1;rounded=0;entryX=0.04;entryY=1.001;entryDx=0;entryDy=0;entryPerimeter=0;" edge="1" parent="zUubmbhgziFnfHhTZaCc-20">
          <mxGeometry width="50" height="50" relative="1" as="geometry">
            <mxPoint y="90.9090909090909" as="sourcePoint" />
            <mxPoint y="22.727272727272727" as="targetPoint" />
          </mxGeometry>
        </mxCell>
        <mxCell id="zUubmbhgziFnfHhTZaCc-23" value="" style="endArrow=none;html=1;rounded=0;entryX=0.078;entryY=1.001;entryDx=0;entryDy=0;entryPerimeter=0;" edge="1" parent="zUubmbhgziFnfHhTZaCc-20">
          <mxGeometry width="50" height="50" relative="1" as="geometry">
            <mxPoint x="28.61182519280206" y="90.9090909090909" as="sourcePoint" />
            <mxPoint x="28.61182519280206" y="22.727272727272727" as="targetPoint" />
          </mxGeometry>
        </mxCell>
        <mxCell id="zUubmbhgziFnfHhTZaCc-24" value="" style="rounded=0;whiteSpace=wrap;html=1;strokeColor=none;" vertex="1" parent="1">
          <mxGeometry x="319.24164524421593" y="503.6363636363636" width="343.34190231362464" height="68.18181818181817" as="geometry" />
        </mxCell>
        <mxCell id="zUubmbhgziFnfHhTZaCc-31" value="" style="rounded=0;whiteSpace=wrap;html=1;" vertex="1" parent="1">
          <mxGeometry x="1706.9151670951157" y="367.27272727272725" width="1144.4730077120823" height="886.3636363636363" as="geometry" />
        </mxCell>
        <mxCell id="zUubmbhgziFnfHhTZaCc-33" value="" style="group" vertex="1" connectable="0" parent="1">
          <mxGeometry x="1306.349614395887" y="208.1818181818182" width="114.44730077120823" height="227.27272727272722" as="geometry" />
        </mxCell>
        <mxCell id="zUubmbhgziFnfHhTZaCc-32" value="" style="rounded=0;whiteSpace=wrap;html=1;strokeColor=none;" vertex="1" parent="zUubmbhgziFnfHhTZaCc-33">
          <mxGeometry width="114.44730077120823" height="227.27272727272722" as="geometry" />
        </mxCell>
        <mxCell id="zUubmbhgziFnfHhTZaCc-26" value="" style="endArrow=none;html=1;rounded=0;" edge="1" parent="zUubmbhgziFnfHhTZaCc-33">
          <mxGeometry width="50" height="50" relative="1" as="geometry">
            <mxPoint y="159.09090909090907" as="sourcePoint" />
            <mxPoint y="68.18181818181817" as="targetPoint" />
          </mxGeometry>
        </mxCell>
        <mxCell id="zUubmbhgziFnfHhTZaCc-27" value="" style="endArrow=none;html=1;rounded=0;" edge="1" parent="zUubmbhgziFnfHhTZaCc-33">
          <mxGeometry width="50" height="50" relative="1" as="geometry">
            <mxPoint x="114.44730077120823" y="159.09090909090907" as="sourcePoint" />
            <mxPoint x="114.44730077120823" y="68.18181818181817" as="targetPoint" />
          </mxGeometry>
        </mxCell>
        <mxCell id="zUubmbhgziFnfHhTZaCc-82" value="" style="endArrow=classic;html=1;rounded=0;endSize=10;startSize=10;" edge="1" parent="zUubmbhgziFnfHhTZaCc-33">
          <mxGeometry width="50" height="50" relative="1" as="geometry">
            <mxPoint x="56.336683804627405" y="159.09090909090907" as="sourcePoint" />
            <mxPoint x="56.336683804627405" y="68.18181818181817" as="targetPoint" />
          </mxGeometry>
        </mxCell>
        <mxCell id="zUubmbhgziFnfHhTZaCc-34" value="" style="group" vertex="1" connectable="0" parent="1">
          <mxGeometry x="2279.1516709511566" y="208.1818181818182" width="114.44730077120823" height="227.27272727272722" as="geometry" />
        </mxCell>
        <mxCell id="zUubmbhgziFnfHhTZaCc-35" value="" style="rounded=0;whiteSpace=wrap;html=1;strokeColor=none;" vertex="1" parent="zUubmbhgziFnfHhTZaCc-34">
          <mxGeometry width="114.44730077120823" height="227.27272727272722" as="geometry" />
        </mxCell>
        <mxCell id="zUubmbhgziFnfHhTZaCc-36" value="" style="endArrow=none;html=1;rounded=0;" edge="1" parent="zUubmbhgziFnfHhTZaCc-34">
          <mxGeometry width="50" height="50" relative="1" as="geometry">
            <mxPoint y="159.09090909090907" as="sourcePoint" />
            <mxPoint y="68.18181818181817" as="targetPoint" />
          </mxGeometry>
        </mxCell>
        <mxCell id="zUubmbhgziFnfHhTZaCc-37" value="" style="endArrow=none;html=1;rounded=0;" edge="1" parent="zUubmbhgziFnfHhTZaCc-34">
          <mxGeometry width="50" height="50" relative="1" as="geometry">
            <mxPoint x="114.44730077120823" y="159.09090909090907" as="sourcePoint" />
            <mxPoint x="114.44730077120823" y="68.18181818181817" as="targetPoint" />
          </mxGeometry>
        </mxCell>
        <mxCell id="zUubmbhgziFnfHhTZaCc-81" value="" style="endArrow=classic;html=1;rounded=0;" edge="1" parent="zUubmbhgziFnfHhTZaCc-34">
          <mxGeometry width="50" height="50" relative="1" as="geometry">
            <mxPoint x="56.336683804627405" y="159.09090909090907" as="sourcePoint" />
            <mxPoint x="56.336683804627405" y="68.18181818181817" as="targetPoint" />
          </mxGeometry>
        </mxCell>
        <mxCell id="zUubmbhgziFnfHhTZaCc-39" value="" style="rounded=0;whiteSpace=wrap;html=1;strokeColor=none;" vertex="1" parent="1">
          <mxGeometry x="1649.6915167095115" y="503.6363636363636" width="114.44730077120823" height="45.45454545454545" as="geometry" />
        </mxCell>
        <mxCell id="zUubmbhgziFnfHhTZaCc-40" value="" style="rounded=0;whiteSpace=wrap;html=1;fillColor=#708dff;fontColor=#ffffff;strokeColor=#000000;" vertex="1" parent="1">
          <mxGeometry x="1735.5269922879177" y="412.7272727272727" width="28.61182519280206" height="90.9090909090909" as="geometry" />
        </mxCell>
        <mxCell id="zUubmbhgziFnfHhTZaCc-41" value="" style="rounded=0;whiteSpace=wrap;html=1;fillColor=#708dff;fontColor=#ffffff;strokeColor=#000000;" vertex="1" parent="1">
          <mxGeometry x="1792.750642673522" y="412.7272727272727" width="28.61182519280206" height="90.9090909090909" as="geometry" />
        </mxCell>
        <mxCell id="zUubmbhgziFnfHhTZaCc-42" value="" style="rounded=0;whiteSpace=wrap;html=1;fillColor=#708dff;fontColor=#ffffff;strokeColor=#000000;" vertex="1" parent="1">
          <mxGeometry x="1849.974293059126" y="412.7272727272727" width="28.61182519280206" height="90.9090909090909" as="geometry" />
        </mxCell>
        <mxCell id="zUubmbhgziFnfHhTZaCc-43" value="" style="rounded=0;whiteSpace=wrap;html=1;fillColor=#708dff;fontColor=#ffffff;strokeColor=#000000;" vertex="1" parent="1">
          <mxGeometry x="1735.5269922879177" y="549.090909090909" width="28.61182519280206" height="90.9090909090909" as="geometry" />
        </mxCell>
        <mxCell id="zUubmbhgziFnfHhTZaCc-44" value="" style="rounded=0;whiteSpace=wrap;html=1;fillColor=#708dff;fontColor=#ffffff;strokeColor=#000000;" vertex="1" parent="1">
          <mxGeometry x="1849.974293059126" y="549.090909090909" width="28.61182519280206" height="90.9090909090909" as="geometry" />
        </mxCell>
        <mxCell id="zUubmbhgziFnfHhTZaCc-45" value="" style="rounded=0;whiteSpace=wrap;html=1;fillColor=#708dff;fontColor=#ffffff;strokeColor=#000000;" vertex="1" parent="1">
          <mxGeometry x="1792.750642673522" y="549.090909090909" width="28.61182519280206" height="90.9090909090909" as="geometry" />
        </mxCell>
        <mxCell id="zUubmbhgziFnfHhTZaCc-46" value="" style="rounded=0;whiteSpace=wrap;html=1;strokeColor=none;fillColor=#9999FF;" vertex="1" parent="1">
          <mxGeometry x="1964.4215938303341" y="458.18181818181813" width="257.5064267352185" height="136.36363636363635" as="geometry" />
        </mxCell>
        <mxCell id="zUubmbhgziFnfHhTZaCc-47" value="" style="rounded=0;whiteSpace=wrap;html=1;strokeColor=none;fillColor=#9999FF;" vertex="1" parent="1">
          <mxGeometry x="2508.0462724935733" y="458.18181818181813" width="257.5064267352185" height="136.36363636363635" as="geometry" />
        </mxCell>
        <mxCell id="zUubmbhgziFnfHhTZaCc-57" value="" style="group;rotation=-90;" vertex="1" connectable="0" parent="1">
          <mxGeometry x="1950.1156812339332" y="1082.113636363636" width="143.0591259640103" height="90.9090909090909" as="geometry" />
        </mxCell>
        <mxCell id="zUubmbhgziFnfHhTZaCc-58" value="" style="rounded=0;whiteSpace=wrap;html=1;fillColor=#708dff;fontColor=#ffffff;strokeColor=#000000;rotation=-90;" vertex="1" parent="zUubmbhgziFnfHhTZaCc-57">
          <mxGeometry x="57.22365038560412" y="45.45454545454545" width="28.61182519280206" height="90.9090909090909" as="geometry" />
        </mxCell>
        <mxCell id="zUubmbhgziFnfHhTZaCc-59" value="" style="rounded=0;whiteSpace=wrap;html=1;fillColor=#708dff;fontColor=#ffffff;strokeColor=#000000;rotation=-90;" vertex="1" parent="zUubmbhgziFnfHhTZaCc-57">
          <mxGeometry x="57.22365038560412" width="28.61182519280206" height="90.9090909090909" as="geometry" />
        </mxCell>
        <mxCell id="zUubmbhgziFnfHhTZaCc-60" value="" style="rounded=0;whiteSpace=wrap;html=1;fillColor=#708dff;fontColor=#ffffff;strokeColor=#000000;rotation=-90;" vertex="1" parent="zUubmbhgziFnfHhTZaCc-57">
          <mxGeometry x="57.22365038560412" y="-45.45454545454545" width="28.61182519280206" height="90.9090909090909" as="geometry" />
        </mxCell>
        <mxCell id="zUubmbhgziFnfHhTZaCc-62" value="" style="group;rotation=-90;" vertex="1" connectable="0" parent="1">
          <mxGeometry x="2694.0231362467866" y="1082.113636363636" width="143.0591259640103" height="90.9090909090909" as="geometry" />
        </mxCell>
        <mxCell id="zUubmbhgziFnfHhTZaCc-63" value="" style="rounded=0;whiteSpace=wrap;html=1;fillColor=#708dff;fontColor=#ffffff;strokeColor=#000000;rotation=-90;" vertex="1" parent="zUubmbhgziFnfHhTZaCc-62">
          <mxGeometry x="57.22365038560412" y="45.45454545454545" width="28.61182519280206" height="90.9090909090909" as="geometry" />
        </mxCell>
        <mxCell id="zUubmbhgziFnfHhTZaCc-64" value="" style="rounded=0;whiteSpace=wrap;html=1;fillColor=#708dff;fontColor=#ffffff;strokeColor=#000000;rotation=-90;" vertex="1" parent="zUubmbhgziFnfHhTZaCc-62">
          <mxGeometry x="57.22365038560412" width="28.61182519280206" height="90.9090909090909" as="geometry" />
        </mxCell>
        <mxCell id="zUubmbhgziFnfHhTZaCc-65" value="" style="rounded=0;whiteSpace=wrap;html=1;fillColor=#708dff;fontColor=#ffffff;strokeColor=#000000;rotation=-90;" vertex="1" parent="zUubmbhgziFnfHhTZaCc-62">
          <mxGeometry x="57.22365038560412" y="-45.45454545454545" width="28.61182519280206" height="90.9090909090909" as="geometry" />
        </mxCell>
        <mxCell id="zUubmbhgziFnfHhTZaCc-66" value="" style="endArrow=none;html=1;rounded=0;startSize=14;endSize=14;strokeColor=#9999FF;" edge="1" parent="1">
          <mxGeometry width="50" height="50" relative="1" as="geometry">
            <mxPoint x="2808.4704370179948" y="1218.4772727272725" as="sourcePoint" />
            <mxPoint x="1978.7275064267353" y="1218.4772727272725" as="targetPoint" />
          </mxGeometry>
        </mxCell>
        <mxCell id="zUubmbhgziFnfHhTZaCc-67" value="" style="endArrow=none;dashed=1;html=1;rounded=0;fillColor=#ffe6cc;strokeColor=#d79b00;endSize=11;startSize=11;strokeWidth=5;" edge="1" parent="1">
          <mxGeometry width="50" height="50" relative="1" as="geometry">
            <mxPoint x="304.9357326478149" y="535.840909090909" as="sourcePoint" />
            <mxPoint x="2121.7866323907456" y="535.840909090909" as="targetPoint" />
          </mxGeometry>
        </mxCell>
        <mxCell id="zUubmbhgziFnfHhTZaCc-68" value="" style="endArrow=none;dashed=1;html=1;dashPattern=1 3;strokeWidth=5;rounded=0;jumpStyle=none;flowAnimation=0;shadow=0;curved=1;fillColor=#ffe6cc;strokeColor=#d79b00;" edge="1" parent="1">
          <mxGeometry width="50" height="50" relative="1" as="geometry">
            <mxPoint x="2136.0925449871465" y="549.090909090909" as="sourcePoint" />
            <mxPoint x="2651.1053984575838" y="549.090909090909" as="targetPoint" />
            <Array as="points">
              <mxPoint x="2364.9871465295632" y="1640" />
            </Array>
          </mxGeometry>
        </mxCell>
        <mxCell id="zUubmbhgziFnfHhTZaCc-69" value="&lt;font style=&quot;font-size: 26px;&quot;&gt;Water Vapour Inlet&lt;/font&gt;" style="text;html=1;align=center;verticalAlign=middle;whiteSpace=wrap;rounded=0;" vertex="1" parent="1">
          <mxGeometry x="97.5" y="776.3636363636363" width="271.81233933161957" height="68.18181818181817" as="geometry" />
        </mxCell>
        <mxCell id="zUubmbhgziFnfHhTZaCc-70" value="&lt;font style=&quot;font-size: 26px;&quot;&gt;Sample Inlet&lt;/font&gt;" style="text;html=1;align=center;verticalAlign=middle;resizable=0;points=[];autosize=1;strokeColor=none;fillColor=none;" vertex="1" parent="1">
          <mxGeometry x="520.3566838046272" y="780.0036363636362" width="170" height="40" as="geometry" />
        </mxCell>
        <mxCell id="zUubmbhgziFnfHhTZaCc-71" value="&lt;font style=&quot;font-size: 26px;&quot;&gt;Water Vapour Outlet&lt;/font&gt;" style="text;html=1;align=center;verticalAlign=middle;resizable=0;points=[];autosize=1;strokeColor=none;fillColor=none;" vertex="1" parent="1">
          <mxGeometry x="360.91164524421595" y="236.36181818181817" width="260" height="40" as="geometry" />
        </mxCell>
        <mxCell id="zUubmbhgziFnfHhTZaCc-72" value="&lt;font style=&quot;font-size: 26px;&quot;&gt;Reagent Ion Source&lt;/font&gt;" style="text;html=1;align=center;verticalAlign=middle;resizable=0;points=[];autosize=1;strokeColor=none;fillColor=none;" vertex="1" parent="1">
          <mxGeometry x="164.0029562982005" y="324.54090909090905" width="250" height="40" as="geometry" />
        </mxCell>
        <mxCell id="zUubmbhgziFnfHhTZaCc-73" value="&lt;font style=&quot;font-size: 26px;&quot;&gt;Ion Molecule Reactor&lt;/font&gt;" style="text;html=1;align=center;verticalAlign=middle;resizable=0;points=[];autosize=1;strokeColor=none;fillColor=none;" vertex="1" parent="1">
          <mxGeometry x="750.0012853470437" y="324.54090909090905" width="270" height="40" as="geometry" />
        </mxCell>
        <mxCell id="zUubmbhgziFnfHhTZaCc-74" value="&lt;font style=&quot;font-size: 26px;&quot;&gt;Turbo Pump&lt;/font&gt;" style="text;html=1;align=center;verticalAlign=middle;resizable=0;points=[];autosize=1;strokeColor=none;fillColor=none;" vertex="1" parent="1">
          <mxGeometry x="1724.1388174807198" y="169.0909090909091" width="170" height="40" as="geometry" />
        </mxCell>
        <mxCell id="zUubmbhgziFnfHhTZaCc-75" value="&lt;font style=&quot;font-size: 26px;&quot;&gt;Orthogonal&lt;/font&gt;&lt;div style=&quot;font-size: 26px;&quot;&gt;&lt;font style=&quot;font-size: 26px;&quot;&gt;Extractor&lt;/font&gt;&lt;/div&gt;" style="text;html=1;align=center;verticalAlign=middle;resizable=0;points=[];autosize=1;strokeColor=none;fillColor=none;" vertex="1" parent="1">
          <mxGeometry x="1999.9975064267353" y="378.1827272727272" width="150" height="80" as="geometry" />
        </mxCell>
        <mxCell id="zUubmbhgziFnfHhTZaCc-76" value="&lt;font style=&quot;font-size: 26px;&quot;&gt;Detector&lt;/font&gt;" style="text;html=1;align=center;verticalAlign=middle;resizable=0;points=[];autosize=1;strokeColor=none;fillColor=none;" vertex="1" parent="1">
          <mxGeometry x="2574.028097686375" y="398.17999999999995" width="120" height="40" as="geometry" />
        </mxCell>
        <mxCell id="zUubmbhgziFnfHhTZaCc-77" value="&lt;font style=&quot;font-size: 26px;&quot;&gt;Reflectron&lt;/font&gt;" style="text;html=1;align=center;verticalAlign=middle;resizable=0;points=[];autosize=1;strokeColor=none;fillColor=none;" vertex="1" parent="1">
          <mxGeometry x="2310.0016709511565" y="1160.0036363636364" width="140" height="40" as="geometry" />
        </mxCell>
        <mxCell id="zUubmbhgziFnfHhTZaCc-78" value="&lt;font style=&quot;font-size: 26px;&quot;&gt;H&lt;sub&gt;3&lt;/sub&gt;O&lt;sup&gt;+&lt;/sup&gt;&lt;/font&gt;" style="text;html=1;align=center;verticalAlign=middle;resizable=0;points=[];autosize=1;strokeColor=none;fillColor=none;fontColor=#000099;labelBorderColor=none;labelBackgroundColor=none;" vertex="1" parent="1">
          <mxGeometry x="200.00251928020566" y="507.7263636363636" width="90" height="60" as="geometry" />
        </mxCell>
        <mxCell id="zUubmbhgziFnfHhTZaCc-80" value="&lt;font style=&quot;font-size: 26px;&quot;&gt;R + H&lt;sub&gt;3&lt;/sub&gt;O&lt;sup&gt;+&lt;/sup&gt;&amp;nbsp;→ H&lt;sub&gt;2&lt;/sub&gt;O + RH&lt;sup&gt;+&lt;/sup&gt;&lt;/font&gt;" style="text;html=1;align=center;verticalAlign=middle;resizable=0;points=[];autosize=1;strokeColor=none;fillColor=none;fontColor=#000099;" vertex="1" parent="1">
          <mxGeometry x="770.0049357326478" y="460.0018181818181" width="310" height="60" as="geometry" />
        </mxCell>
      </root>
    </mxGraphModel>
  </diagram>
</mxfile>
